<svg version="1.1" id="Layer_1" xmlns="http://www.w3.org/2000/svg" xmlns:xlink="http://www.w3.org/1999/xlink" x="0px" y="0px"
	 width="100%" viewBox="0 0 512 512" enable-background="new 0 0 512 512" xml:space="preserve">
<path fill="transparent" opacity="1.000000" stroke="none" 
	d="
M512.652588,252.913605 
	C513.000000,338.297119 512.979858,423.594269 513.078857,508.891266 
	C513.082520,512.077148 512.759644,513.109741 509.111938,513.107056 
	C341.016724,512.983826 172.921387,512.982361 4.826182,513.113037 
	C1.051654,513.115967 0.928407,511.887207 0.931496,508.829437 
	C1.016985,424.198792 1.000000,339.568054 1.000000,254.468658 
	C2.805559,253.358658 3.718792,254.810471 4.858523,255.676254 
	C9.957221,259.549377 13.060068,259.781830 18.491737,256.161469 
	C24.744547,251.993774 30.128918,246.724503 35.831520,241.872192 
	C57.517929,223.419403 79.247597,205.016953 100.891205,186.514526 
	C120.128845,170.068909 139.389099,153.649414 158.663483,137.247391 
	C177.810318,120.953926 196.951019,104.652695 216.107788,88.370728 
	C228.160126,78.127052 240.269760,67.949326 252.221970,57.588387 
	C256.595642,53.796997 257.371979,53.825027 261.866455,57.625801 
	C283.607666,76.011391 305.261963,94.499313 326.907562,112.996544 
	C354.759277,136.797195 382.715088,160.475388 410.594299,184.243530 
	C433.912231,204.123047 457.154816,224.093063 480.636353,243.781342 
	C483.824280,246.454300 487.024017,249.126038 490.101257,251.930679 
	C499.298065,260.312836 503.061981,260.477295 512.652588,252.913605 
z"/>
<path fill="transparent" opacity="1.000000" stroke="none" 
	d="
M1.370606,243.105316 
	C1.000000,163.701477 1.021923,84.402908 0.920381,5.104510 
	C0.916290,1.909846 1.253075,0.890665 4.892160,0.893322 
	C172.984970,1.016075 341.077881,1.017575 509.170685,0.887271 
	C512.938599,0.884350 513.072571,2.103057 513.069214,5.167330 
	C512.981750,84.465706 513.000000,163.764206 513.000000,243.531342 
	C512.294617,244.211288 511.712799,243.982498 511.195007,243.503265 
	C481.134277,215.678345 449.160339,190.069733 418.185883,163.303177 
	C414.819611,160.394196 413.661591,157.104614 413.673096,152.812759 
	C413.760284,120.330902 413.726105,87.848679 413.719269,55.366573 
	C413.717010,44.728954 410.383270,41.330070 399.731750,41.292645 
	C384.740173,41.239967 369.748260,41.258209 354.756561,41.286392 
	C344.640747,41.305412 340.573517,45.183056 340.339630,55.459118 
	C340.108398,65.615936 340.293091,75.780251 340.277618,85.941261 
	C340.275330,87.440208 340.339081,88.943176 340.202240,90.436501 
	C340.082397,91.744331 340.178467,93.314224 338.757843,93.927353 
	C337.319885,94.547981 336.289124,93.325211 335.281525,92.516861 
	C326.449738,85.431480 317.938354,77.964088 309.353210,70.587990 
	C294.960083,58.221840 280.408325,46.042095 266.082489,33.596207 
	C259.819794,28.155310 254.500595,28.198771 247.776825,33.908070 
	C238.132416,42.097332 228.446671,50.239418 218.852661,58.488510 
	C199.539047,75.094696 180.092697,91.545258 160.709167,108.069450 
	C137.019714,128.264404 113.338463,148.469025 89.624535,168.635193 
	C66.292145,188.476868 43.048481,208.423538 19.591530,228.117691 
	C13.623646,233.128265 8.223351,238.811310 1.370606,243.105316 
z"/>
<path fill="#ffffff" opacity="1.000000" stroke="none" 
	d="
M1.000000,243.458069 
	C10.012301,234.084137 20.003218,226.281601 29.577465,218.009567 
	C41.933208,207.334351 54.591763,197.010468 67.037331,186.438080 
	C76.894829,178.064224 86.572426,169.478592 96.430298,161.105179 
	C108.876610,150.533096 121.639793,140.323227 133.849548,129.487518 
	C141.328293,122.850418 149.026611,116.485466 156.593674,109.962158 
	C166.858673,101.113052 177.336334,92.511162 187.668716,83.739532 
	C195.158386,77.381203 202.524811,70.877754 210.009827,64.513840 
	C220.588531,55.519642 231.242615,46.614155 241.825882,37.625301 
	C244.318481,35.508217 246.352264,32.925049 249.243881,31.187456 
	C257.658630,26.130983 259.879578,26.960520 267.017029,32.734383 
	C283.028198,45.686703 298.514893,59.289146 314.162628,72.688232 
	C322.250305,79.613670 330.225800,86.670082 338.301117,93.710152 
	C339.718536,92.748795 338.949860,91.297050 338.956940,90.133301 
	C339.027771,78.472420 338.874451,66.809174 339.038452,55.150169 
	C339.177521,45.262497 343.804230,39.557259 354.160370,39.874817 
	C369.805145,40.354553 385.475464,39.994801 401.134949,40.001892 
	C410.973877,40.006351 414.999969,44.034336 415.000000,53.843086 
	C415.000000,87.327705 415.060486,120.812592 414.906921,154.296509 
	C414.891449,157.663254 415.992096,159.889130 418.392273,161.927872 
	C432.103760,173.574661 445.776611,185.266953 459.460388,196.946411 
	C473.143951,208.625717 486.784729,220.355728 500.530762,231.961044 
	C504.817505,235.580154 509.654999,238.597183 512.654175,243.908752 
	C513.000000,246.700012 513.000000,249.400024 513.000000,252.550018 
	C506.398682,262.418365 499.339264,261.424042 491.502441,254.872925 
	C478.815887,244.267731 466.533844,233.180252 453.935730,222.467255 
	C439.635986,210.307281 425.119324,198.402496 410.805573,186.258728 
	C400.565277,177.570908 390.579010,168.583725 380.343109,159.890564 
	C368.278503,149.644287 356.002899,139.646408 343.938568,129.399765 
	C333.703003,120.706352 323.704193,111.734360 313.480255,103.027016 
	C301.050903,92.441452 288.465363,82.039429 276.008026,71.486443 
	C270.505341,66.824966 265.034851,62.111397 259.792175,57.164585 
	C257.878937,55.359337 256.617432,55.097267 254.643341,56.822582 
	C244.781342,65.441765 234.917862,74.061356 224.935181,82.539818 
	C212.617722,93.001282 200.124435,103.255859 187.815659,113.727394 
	C177.587021,122.429260 167.590546,131.404144 157.354660,140.097290 
	C145.289978,150.343567 133.014175,160.341248 120.949890,170.587982 
	C110.714409,179.281433 100.716148,188.253983 90.492233,196.961288 
	C78.062859,207.546875 65.466560,217.936310 53.020615,228.502625 
	C45.279602,235.074539 37.715080,241.853989 30.006453,248.464600 
	C26.928141,251.104446 23.819120,253.752197 20.473656,256.028290 
	C11.804800,261.926117 9.063129,261.570679 1.337893,254.075272 
	C1.000000,250.638718 1.000000,247.277420 1.000000,243.458069 
z"/>
<path fill="transparent" opacity="1.000000" stroke="none" 
	d="
M236.776657,104.720947 
	C240.674942,102.733818 243.018677,99.420364 246.029205,96.921791 
	C257.192871,87.656586 262.421570,92.077583 270.176056,98.670776 
	C283.506531,110.004837 296.872833,121.297112 310.157837,132.684189 
	C320.359863,141.428711 330.402832,150.359039 340.620026,159.085587 
	C353.419739,170.017899 366.370789,180.773041 379.170776,191.705048 
	C389.388275,200.431427 399.410950,209.386185 409.640686,218.097946 
	C421.950897,228.581482 434.571808,238.707870 446.685638,249.410553 
	C451.899414,254.016968 457.544495,258.175690 462.126465,263.542480 
	C466.915070,269.151245 464.846741,275.515625 461.520874,278.802917 
	C457.392639,282.883240 449.908661,283.483551 445.974396,279.559296 
	C444.015839,277.605743 441.614014,276.091644 439.690826,274.109009 
	C437.857697,272.219208 435.709015,270.854248 433.000000,269.039612 
	C433.000000,270.945374 433.000000,272.507477 433.000000,274.069580 
	C433.000000,339.559509 432.882080,405.049805 433.107605,470.538971 
	C433.148651,482.460144 425.875671,486.054688 417.649658,486.049011 
	C310.499542,485.975098 203.349350,486.000488 96.199173,485.999207 
	C85.814186,485.999084 81.000992,481.177704 81.000755,470.776123 
	C80.999252,405.286194 81.000000,339.796295 81.000000,274.306366 
	C81.000000,272.707550 81.000000,271.108765 81.000000,269.174438 
	C74.994026,272.110901 71.689636,277.759216 66.095955,280.593079 
	C61.665222,282.837769 55.298237,282.310150 52.069118,278.193481 
	C48.512440,273.659180 48.106010,267.557129 51.832336,263.768738 
	C61.157448,254.288391 71.623375,246.095184 81.825394,237.601334 
	C89.504616,231.207886 96.915543,224.493332 104.516212,218.004074 
	C115.205872,208.877502 125.981895,199.852173 136.680283,190.735794 
	C144.160629,184.361588 151.544571,177.874283 159.022339,171.497040 
	C169.969604,162.160965 180.993378,152.914459 191.925110,143.560333 
	C199.644897,136.954605 207.252731,130.218246 214.935318,123.568802 
	C222.116074,117.353691 229.329437,111.176270 236.776657,104.720947 
z"/>
<path fill="" opacity="1.000000" stroke="none" 
	d="
M392.000000,108.000000 
	C392.000000,118.469398 392.000000,128.438797 392.000000,139.020676 
	C384.681549,132.905487 377.744080,127.119896 370.822144,121.315750 
	C369.328705,120.063499 368.002197,118.688919 366.311005,117.585114 
	C363.372467,115.667252 361.750153,113.062218 361.859009,108.939919 
	C362.228271,94.959206 362.115143,80.961067 361.915619,66.973450 
	C361.868225,63.648788 362.827393,62.822018 366.037567,62.924065 
	C373.524902,63.162075 381.028564,63.134521 388.517975,62.931767 
	C391.385437,62.854134 392.092377,63.741264 392.063690,66.528542 
	C391.923157,80.184464 391.999969,93.842628 392.000000,108.000000 
z"/>
<path fill="#FFFFFF" opacity="1.000000" stroke="none" 
	d="
M160.000000,463.000000 
	C142.337067,463.000000 125.173271,462.910828 108.011978,463.078766 
	C104.760445,463.110596 103.919815,462.269531 103.924545,459.000244 
	C104.024292,390.015411 104.073082,321.030182 103.865479,252.045837 
	C103.848297,246.340149 108.464638,245.190659 111.226135,242.585892 
	C118.932884,235.316574 127.364700,228.817078 135.494476,221.994843 
	C146.006592,213.173401 156.545197,204.382782 166.993042,195.485718 
	C174.727936,188.898926 182.276672,182.093445 190.015579,175.511490 
	C200.216019,166.836044 210.559799,158.329239 220.769196,149.664200 
	C228.388092,143.197815 235.869308,136.569443 243.456238,130.065002 
	C247.168076,126.882759 251.209976,124.049599 254.670349,120.622139 
	C257.103271,118.212387 258.681488,119.480209 260.420105,120.979240 
	C272.951324,131.783691 285.368317,142.721924 297.973297,153.439255 
	C312.280701,165.604065 326.803375,177.515610 341.123474,189.665680 
	C351.368225,198.358017 361.379425,207.325150 371.592926,216.054901 
	C383.768036,226.461258 396.000336,236.802567 408.341187,247.010895 
	C409.931946,248.326797 410.003387,249.624908 410.002350,251.260147 
	C409.997223,259.425049 410.000000,267.589935 410.000000,275.754822 
	C410.000000,336.574921 409.962646,397.395081 410.088531,458.214905 
	C410.096466,462.047394 409.239899,463.133057 405.273590,463.101990 
	C379.780701,462.902313 354.284912,462.915497 328.791687,463.091187 
	C324.969452,463.117493 323.883087,462.257324 323.899353,458.280121 
	C324.064209,417.956238 324.047943,377.631317 323.970764,337.306915 
	C323.947601,325.198639 319.688385,321.075684 307.881042,321.038147 
	C273.888763,320.930054 239.895584,320.909241 205.903580,321.050171 
	C194.313187,321.098206 190.078491,325.147278 190.044327,337.022614 
	C189.928284,377.346832 189.928879,417.671906 190.107040,457.995697 
	C190.125397,462.152710 189.165451,463.299988 184.988449,463.109131 
	C176.840988,462.736908 168.664474,463.000000 160.000000,463.000000 
z"/>
<path fill="#FFFFFF" opacity="1.000000" stroke="none" 
	d="
M255.000000,345.000000 
	C269.331635,345.000000 283.164795,345.109253 296.993835,344.919586 
	C300.260254,344.874786 301.087189,345.748688 301.076416,349.006744 
	C300.955627,385.668549 300.955658,422.331024 301.076355,458.992828 
	C301.087097,462.250061 300.257721,463.094788 296.994965,463.077881 
	C270.332245,462.939636 243.668228,462.939728 217.005524,463.077820 
	C213.743790,463.094727 212.912811,462.251617 212.923553,458.993347 
	C213.044388,422.331543 213.044342,385.669067 212.923645,349.007263 
	C212.912933,345.750153 213.737289,344.866943 217.005829,344.919189 
	C229.501114,345.119049 242.001511,345.000000 255.000000,345.000000 
z"/>
</svg>