<svg version="1.1" id="Layer_1" xmlns="http://www.w3.org/2000/svg" xmlns:xlink="http://www.w3.org/1999/xlink" x="0px" y="0px"
	 width="100%" viewBox="0 0 512 512" enable-background="new 0 0 512 512" xml:space="preserve">
<path fill="transparent" opacity="1.000000" stroke="none" 
	d="
M512.629761,233.932388 
	C513.000000,325.568542 512.977478,417.137085 513.086853,508.705505 
	C513.091003,512.175232 512.543091,513.127136 508.803040,513.111267 
	C467.181702,512.934814 425.559387,513.000000 383.468658,513.000000 
	C382.947937,510.683350 384.863617,511.028168 386.173218,510.792938 
	C403.489899,507.683014 417.967438,499.611969 430.083435,486.797363 
	C440.494843,475.785736 451.572845,465.407623 462.143188,454.542175 
	C470.716309,445.729706 477.787506,435.990753 479.988770,423.405609 
	C482.600677,408.472870 479.219971,394.900909 469.253479,383.823456 
	C446.859283,358.932800 423.134552,335.289825 398.339081,312.789734 
	C382.728943,298.624695 357.251892,298.752594 340.138519,312.258514 
	C329.112946,320.959900 320.019684,331.681213 309.913818,341.345062 
	C307.265472,343.877594 304.653839,346.455933 302.140350,349.119507 
	C299.444244,351.976654 296.612640,352.364624 293.188202,350.464020 
	C284.016266,345.373413 274.783875,340.419708 266.229828,334.272491 
	C247.515839,320.824066 229.985062,305.978271 214.144455,289.270660 
	C194.628662,268.686676 176.401474,247.047134 163.427521,221.531250 
	C160.022110,214.833817 160.603088,214.111115 166.235321,208.915497 
	C178.839264,197.288651 191.454651,185.614807 201.808685,171.834808 
	C214.507507,154.934174 214.174988,131.414459 201.152832,114.640076 
	C198.294510,110.958160 195.253250,107.436867 191.934341,104.134125 
	C173.276459,85.567085 154.738800,66.879059 136.050797,48.342529 
	C128.001038,40.357998 118.838692,34.333290 107.346931,32.173233 
	C93.675377,29.603449 81.578728,33.303486 70.449692,40.797993 
	C60.292641,47.637943 52.047096,56.711239 43.868870,65.672768 
	C37.797813,72.325294 31.507233,78.735222 25.121452,85.054253 
	C15.022093,95.048050 8.363038,106.899529 4.851512,120.614693 
	C4.250468,122.962227 4.239196,125.678329 1.361860,127.072235 
	C1.000000,86.543892 1.089772,46.087296 0.868516,5.632400 
	C0.845016,1.335600 2.042943,0.898552 5.858155,0.903760 
	C96.592873,1.027615 187.327789,1.000000 278.531342,1.000000 
	C279.324066,2.991623 277.540771,3.391976 276.464142,4.277280 
	C272.168488,7.809601 269.682556,12.265669 270.936188,17.821249 
	C272.265961,23.714262 275.704712,27.968029 282.110718,29.208950 
	C299.299927,32.538704 316.212433,36.880859 332.424652,43.614925 
	C361.450470,55.671398 387.567932,72.092804 410.401825,93.920868 
	C431.950531,114.520332 449.466125,137.942108 462.623566,164.586517 
	C471.943481,183.459763 478.871460,203.234558 482.802917,223.982895 
	C483.298828,226.600174 483.884460,229.196518 484.509979,231.787216 
	C485.895294,237.524460 489.311890,241.180847 495.160675,242.380966 
	C501.168640,243.613739 505.964172,241.687317 509.566345,236.734055 
	C510.341919,235.667587 510.949280,234.433380 512.629761,233.932388 
z"/>
<path fill="#ffffff" opacity="1.000000" stroke="none" 
	d="
M1.000000,127.468658 
	C4.115098,123.973999 3.639444,119.629265 4.851954,115.942421 
	C8.822198,103.870110 15.056966,93.378334 24.055670,84.369041 
	C35.079426,73.332306 45.865307,62.056252 56.671013,50.803944 
	C66.927032,40.124046 78.892471,32.296516 93.727661,30.253731 
	C104.098404,28.825695 114.053276,31.381155 123.154610,36.679523 
	C129.564102,40.410824 134.966064,45.384411 140.177841,50.630554 
	C158.499771,69.073296 176.994873,87.344398 195.266968,105.836067 
	C202.972168,113.633850 208.945770,122.535881 211.211349,133.589813 
	C214.150528,147.930145 211.408951,160.984131 202.738861,172.726196 
	C192.948517,185.985428 180.558167,196.828720 168.983246,208.406937 
	C161.754517,215.637680 161.113678,215.581451 166.118561,224.302994 
	C174.334000,238.619324 183.487396,252.295517 194.256516,264.931458 
	C204.428024,276.866180 214.584747,288.813873 226.080948,299.451508 
	C245.062073,317.015076 264.655029,333.843964 287.761475,346.020111 
	C297.996826,351.413696 297.896118,351.604889 306.039246,343.461365 
	C314.758881,334.741241 323.384552,325.924530 332.221863,317.325287 
	C343.244751,306.599304 356.137360,300.075287 371.947327,301.033997 
	C382.576477,301.678558 392.078186,305.469055 400.046906,312.582520 
	C421.777405,331.980682 441.538696,353.390137 462.236298,373.843048 
	C471.522003,383.018921 479.301636,393.274139 481.396393,406.799011 
	C483.012543,417.233856 481.569366,427.091675 476.937836,436.579956 
	C472.098694,446.493469 464.449615,454.094482 456.788849,461.720703 
	C447.694946,470.773621 438.394135,479.635010 429.624115,488.992859 
	C418.234375,501.145996 404.095306,508.009918 388.250183,511.921661 
	C386.666748,512.312561 384.942810,512.134155 383.142029,512.609985 
	C373.979095,513.000000 364.958221,513.000000 355.468658,513.000000 
	C347.312103,511.919983 339.521545,511.894714 331.888733,510.084167 
	C303.471893,503.343445 276.879425,491.962036 251.193695,478.379669 
	C225.092361,464.577484 200.264633,448.750000 176.947479,430.563812 
	C155.369751,413.734283 134.953278,395.584900 116.441605,375.487213 
	C87.259712,343.805206 61.063675,309.777222 40.263031,271.916473 
	C24.337744,242.929688 11.162952,212.762939 3.558089,180.393768 
	C2.410437,175.508926 2.274216,170.509583 1.223772,165.297684 
	C1.000000,152.645767 1.000000,140.291550 1.000000,127.468658 
z"/>
<path fill="transparent" opacity="1.000000" stroke="none" 
	d="
M1.000000,165.468658 
	C4.351610,167.353775 3.187632,171.305237 3.781706,174.364395 
	C6.701725,189.400848 11.264883,203.884842 16.590490,218.202286 
	C23.037178,235.533661 31.167950,252.066147 39.810783,268.361664 
	C50.090599,287.743561 62.125546,306.031219 75.190712,323.625610 
	C87.159157,339.743103 99.915810,355.210083 113.454948,370.068695 
	C130.135727,388.375153 148.039368,405.275208 167.243607,420.920593 
	C181.958389,432.908478 197.019775,444.337921 213.024887,454.528717 
	C235.687790,468.958679 259.103760,481.912231 283.851746,492.527466 
	C300.570709,499.698792 317.667267,505.531860 335.343292,509.563660 
	C341.639832,510.999878 348.122009,512.225769 354.846466,512.601196 
	C238.406052,513.000000 121.812080,512.977478 5.218262,513.103577 
	C1.533573,513.107544 0.905667,512.248169 0.909070,508.723358 
	C1.019354,394.461426 1.000000,280.199371 1.000000,165.468658 
z"/>
<path fill="#transparent" opacity="1.000000" stroke="none" 
	d="
M290.951599,1.374226 
	C363.595337,1.000000 436.190735,1.036238 508.785797,0.894684 
	C512.477173,0.887487 513.097168,1.760986 513.091309,5.277812 
	C512.970154,78.205948 513.000000,151.134338 513.000000,224.531342 
	C509.724640,224.351105 510.535492,221.369232 510.158844,219.411453 
	C506.779358,201.846222 501.589844,184.832993 494.743896,168.337311 
	C483.427246,141.069122 468.197601,116.221214 448.775238,93.910233 
	C423.854034,65.282539 394.618652,42.296219 360.475861,25.681089 
	C340.027588,15.730206 318.621979,8.482804 296.334900,3.864231 
	C294.447662,3.473139 292.275757,3.563877 290.951599,1.374226 
z"/>
<path fill="#ffffff" opacity="1.000000" stroke="none" 
	d="
M290.539368,1.000000 
	C299.535248,4.142538 308.590881,5.259089 317.308624,7.802969 
	C328.261566,10.999099 338.961151,14.811481 349.418762,19.211666 
	C367.869598,26.975124 385.082520,37.022774 401.355896,48.724522 
	C418.920776,61.354923 434.511780,76.032928 448.865021,92.198753 
	C458.506744,103.058060 467.245178,114.559288 474.875275,126.819115 
	C485.055969,143.177200 493.512695,160.444107 500.070190,178.639969 
	C505.485504,193.666489 509.746460,208.946518 512.612610,224.861328 
	C513.000000,227.700012 513.000000,230.400024 513.000000,233.550018 
	C509.626648,239.241943 506.102600,244.128433 498.836639,244.035950 
	C490.104309,243.924835 484.675629,239.958450 483.056946,231.339996 
	C479.847382,214.250977 475.316864,197.563187 468.806854,181.435287 
	C461.374207,163.021622 451.897766,145.709076 440.137665,129.710297 
	C433.556152,120.756653 426.553802,112.167213 418.801544,104.110222 
	C404.513184,89.260269 389.038147,75.962097 371.542969,65.084320 
	C350.858612,52.223652 328.934662,42.217583 305.320862,35.845360 
	C297.399292,33.707718 289.281372,32.556973 281.432465,30.132902 
	C274.130493,27.877750 269.451996,22.912771 269.001251,15.985564 
	C268.661072,10.756959 273.100616,4.292069 278.908142,1.346511 
	C282.692902,1.000000 286.385834,1.000000 290.539368,1.000000 
z"/>
<path fill="#ffffff" opacity="1.000000" stroke="none" 
	d="
M323.034088,140.001434 
	C313.699158,133.726074 303.518372,130.197479 293.222504,127.078484 
	C287.395782,125.313377 281.321838,124.374977 275.379639,122.977615 
	C269.624207,121.624184 264.587402,114.035828 265.000366,107.494301 
	C265.417572,100.884880 270.753235,95.124756 276.874695,93.935883 
	C284.174103,92.518234 290.737854,95.335579 297.510956,96.915100 
	C319.643951,102.076622 339.494873,112.271301 357.215942,126.161224 
	C374.604248,139.790283 389.219269,156.067673 400.279419,175.500290 
	C408.621735,190.157715 414.688019,205.555664 418.397827,221.914734 
	C419.856384,228.346375 421.682281,234.781479 418.223053,241.419327 
	C415.389740,246.856247 410.351349,248.223236 405.380646,248.801712 
	C399.449066,249.492020 394.104340,245.227402 391.962341,239.686462 
	C388.202301,229.960068 387.077850,219.478302 383.087555,209.778229 
	C377.658997,196.581924 370.727844,184.377777 361.794647,173.233627 
	C352.159302,161.213562 340.570740,151.416382 328.067444,142.599457 
	C326.628418,141.584702 324.968872,140.882568 323.034088,140.001434 
z"/>
<path fill="transparent" opacity="1.000000" stroke="none" 
	d="
M39.980972,192.087738 
	C35.909088,180.400833 33.272018,168.859299 31.829361,156.909195 
	C30.671568,147.318710 30.859533,138.008438 33.006306,128.672119 
	C34.763000,121.032265 37.843548,113.902664 43.322365,108.289413 
	C57.173569,94.098305 71.088173,79.953117 85.424316,66.257370 
	C93.819481,58.237225 104.258804,58.169022 112.560371,66.251717 
	C133.813065,86.944084 154.651184,108.063545 175.569382,129.097473 
	C183.302094,136.872971 184.925797,147.619690 176.485275,157.279221 
	C164.230042,171.304413 150.159668,183.397125 136.981598,196.429153 
	C128.827530,204.492859 128.565826,214.500961 132.520569,224.157425 
	C141.110733,245.132355 153.826904,263.581329 167.824371,281.073242 
	C180.723312,297.192352 194.723068,312.478882 210.019623,326.394531 
	C227.215439,342.037994 245.364532,356.574310 265.315918,368.615906 
	C273.281128,373.423309 281.565826,377.879761 290.138672,381.456848 
	C300.813049,385.910858 310.158051,382.360321 318.076630,374.433929 
	C330.090881,362.407776 342.003845,350.277802 354.161621,338.398407 
	C364.892609,327.913208 373.927155,328.988312 383.374054,338.106323 
	C403.516418,357.547333 423.102448,377.565796 442.845123,397.418518 
	C445.130035,399.716125 447.319733,402.254730 448.942719,405.037842 
	C454.699249,414.909424 452.601257,422.277313 443.449951,431.938293 
	C433.597137,442.339783 422.902832,451.955109 413.237518,462.518951 
	C407.558563,468.725769 401.624908,474.238037 394.111633,477.986511 
	C382.037262,484.010559 369.339447,483.565308 356.343353,482.208618 
	C342.746704,480.789276 329.657776,477.580444 316.878784,472.985352 
	C292.480042,464.211975 269.360229,452.839630 246.965240,439.709503 
	C227.972260,428.574036 210.158234,415.847382 192.537415,402.789764 
	C185.720444,397.738129 179.210785,392.200897 173.008499,386.406128 
	C161.854004,375.984406 150.583588,365.624481 140.180389,354.474823 
	C122.388382,335.406189 106.173615,314.988708 91.204765,293.609955 
	C77.140190,273.522736 65.006317,252.315445 54.600025,230.120529 
	C48.877895,217.916214 44.041359,205.359634 39.980972,192.087738 
z"/>
</svg>